# xmcd
#
# Track frame offsets: 
#        150
#        23182
#        39202
#        58070
#        98423
#        126704
#        161753
#        194027
#        223851
#        239018
#        263140
#
# Disc length: 4079 seconds
#
# Revision: 0
# Processed by: cddbd v1.5.2PL0 Copyright (c) Steve Scherf et al.
# Submitted via: ExactAudioCopyFreeDBPlugin 1.0
#
DISCID=a50fed0b
DTITLE=Krissy Matthews - Live At Freak Valley
DYEAR=2016
DGENRE=Blues
TTITLE0=Feeling For The Blues
TTITLE1=I've Been Searching
TTITLE2=All Night Long
TTITLE3=Searching The Desert For The Blues
TTITLE4=Language By Injection
TTITLE5=The Soul Will Never Die
TTITLE6=Bad Boy
TTITLE7=Freedom
TTITLE8=Hit The Rock
TTITLE9=Roadsick Blues
TTITLE10=Bubbles And The Seven Phones
EXTD=
EXTT0=
EXTT1=
EXTT2=
EXTT3=
EXTT4=
EXTT5=
EXTT6=
EXTT7=
EXTT8=
EXTT9=
EXTT10=
PLAYORDER=
